HIERARCHY
ROOT Hips
{
     OFFSET 1.88212 96.90440 -13.34250
     CHANNELS 6 Xposition Yposition Zposition Zrotation Xrotation Yrotation
     JOINT Spine
     {
          OFFSET 0.00000 11.89050 0.00000
          CHANNELS 3 Zrotation Xrotation Yrotation
          JOINT Spine1
          {
               OFFSET -0.00000 25.65740 0.12766
               CHANNELS 3 Zrotation Xrotation Yrotation
               JOINT HEad
               {
                    OFFSET 0.00000 8.73416 0.01134
                    CHANNELS 3 Zrotation Xrotation Yrotation
                    End Site
                    {
                         OFFSET -0.29000 12.77420 2.51395
                    }
               }
               JOINT LeftShoulder1
               {
                    OFFSET 8.99000 -0.36225 -0.22000
                    CHANNELS 3 Zrotation Xrotation Yrotation
                    JOINT LeftArm
                    {
                         OFFSET 10.28270 -0.00338 0.32212
                         CHANNELS 3 Zrotation Xrotation Yrotation
                         JOINT LeftForeArm
                         {
                              OFFSET 32.76690 0.09914 -1.42434
                              CHANNELS 3 Zrotation Xrotation Yrotation
                              JOINT LeftHand
                              {
                                   OFFSET 27.56430 0.08536 1.02216
                                   CHANNELS 3 Zrotation Xrotation Yrotation
                                   End Site
                                   {
                                        OFFSET 16.74430 -0.60000 1.50291
                                   }
                              }
                         }
                    }
               }
               JOINT RightShoulder
               {
                    OFFSET -8.99000 -0.36225 -0.22000
                    CHANNELS 3 Zrotation Xrotation Yrotation
                    JOINT RightArm
                    {
                         OFFSET -10.28270 -0.00338 0.32212
                         CHANNELS 3 Zrotation Xrotation Yrotation
                         JOINT RightForeArm
                         {
                              OFFSET -32.89710 0.09914 -1.42434
                              CHANNELS 3 Zrotation Xrotation Yrotation
                              JOINT RightHand
                              {
                                   OFFSET -27.49210 0.08536 1.02216
                                   CHANNELS 3 Zrotation Xrotation Yrotation
                                   End Site
                                   {
                                        OFFSET -16.63120 -0.60000 1.50291
                                   }
                              }
                         }
                    }
               }
          }
     }
     JOINT LeftUpLeg
     {
          OFFSET 8.94580 -8.66707 0.10165
          CHANNELS 3 Zrotation Xrotation Yrotation
          JOINT LeftLeg
          {
               OFFSET 0.00000 -44.42270 1.37270
               CHANNELS 3 Zrotation Xrotation Yrotation
               JOINT LeftFoot
               {
                    OFFSET -0.25355 -42.09240 -1.46059
                    CHANNELS 3 Zrotation Xrotation Yrotation
                    JOINT LeftToes
                    {
                         OFFSET -0.04000 -4.41509 8.49910
                         CHANNELS 3 Zrotation Xrotation Yrotation
                         End Site
                         {
                              OFFSET 0.08000 -0.04745 9.77979
                         }
                    }
               }
          }
     }
     JOINT RightUpLeg
     {
          OFFSET -8.94580 -8.66707 0.10165
          CHANNELS 3 Zrotation Xrotation Yrotation
          JOINT RightLeg
          {
               OFFSET 0.00000 -44.42270 1.37270
               CHANNELS 3 Zrotation Xrotation Yrotation
               JOINT RightFoot
               {
                    OFFSET 0.25355 -42.09240 -1.46059
                    CHANNELS 3 Zrotation Xrotation Yrotation
                    JOINT RightToes
                    {
                         OFFSET 0.04000 -4.41509 8.49910
                         CHANNELS 3 Zrotation Xrotation Yrotation
                         End Site
                         {
                              OFFSET -0.08000 -0.13745 9.77979
                         }
                    }
               }
          }
     }
}
MOTION
Frames: 19
Frame Time: 0.01667
-0.08913 93.69311 -37.36778 13.61679 7.18508 114.17841 -13.82486 25.45175 4.45153 -0.00514 0.01823 -0.01256 -9.61936 36.99862 0.29387 6.50417 10.79640 -10.16791 -165.74658 -62.92418 -135.21208 -37.66407 67.71621 -73.75372 9.33914 9.23322 -10.82433 21.21093 9.40952 -10.04753 75.83863 6.40932 71.03088 7.08730 24.77964 91.29413 17.91121 12.73507 11.04644 11.71971 2.55103 -18.99122 -22.20121 21.35166 43.24467 -18.68450 -0.04273 -0.02105 18.26172 -17.59566 -37.30162 -24.04704 16.31680 16.04075 23.67670 -14.04139 -53.49759 -13.41691 0.01069 -0.01137 -4.60287 -9.23758 18.26353 
-0.07570 93.88660 -38.24382 13.20557 6.65485 113.70670 -12.95570 25.50324 3.29999 0.01248 0.10029 -0.07743 -9.67175 37.47473 -0.75261 5.11840 10.36704 -8.74142 -165.04298 -63.11798 -135.17792 -36.83045 67.60921 -75.16984 11.32198 8.66285 -11.23617 20.35492 9.21410 -8.67743 76.20736 6.25451 71.11780 6.07832 24.99982 91.76975 17.55883 12.73119 11.22377 10.35261 2.47478 -18.85966 -20.11864 21.68997 40.65401 -19.45352 -0.02024 -0.01446 19.30821 -18.46791 -34.40943 -23.60791 16.67753 18.83103 21.45580 -16.45687 -56.81926 -12.53698 0.00902 -0.01002 -5.42604 -8.78689 19.36409 
-0.15385 94.02265 -39.21150 12.85660 6.12455 113.15022 -12.19115 25.54761 2.29437 -0.00486 0.01088 -0.00570 -9.65277 37.79583 -1.52724 3.95997 10.10251 -7.53587 -163.89809 -63.48687 -134.70828 -35.59759 67.32307 -76.87737 10.73393 8.87615 -9.90062 19.70179 9.15371 -7.54977 76.60521 5.96738 71.15479 5.15920 25.25926 92.34388 17.27586 12.60515 11.03102 9.29701 2.44909 -18.67679 -18.76200 20.79307 41.02080 -19.02051 0.01030 -0.01864 19.41219 -18.76584 -34.49607 -23.40532 16.80796 21.36058 19.66075 -18.24026 -59.68024 -11.61776 0.00763 -0.00863 -6.24903 -8.43988 20.26865 
-0.31849 94.11716 -40.23574 12.56638 5.61729 112.53312 -11.53274 25.58947 1.42946 -0.00554 0.00527 -0.00113 -9.74373 37.73871 -1.86367 2.93334 9.78595 -6.30566 -162.36809 -63.95500 -133.81664 -34.11459 66.86454 -78.77843 12.09358 8.52639 -10.01151 19.14008 9.07500 -6.39833 77.01168 5.56905 71.15618 4.34081 25.52912 93.00235 17.03962 12.50322 11.10430 8.57158 2.52076 -18.45498 -18.01919 19.20631 43.82772 -17.79455 -0.01284 -0.03086 18.54002 -18.83608 -37.15941 -23.97219 16.40146 22.66173 20.76103 -18.23399 -60.17009 -10.63599 -0.01079 0.00145 -7.17736 -9.57897 20.21102 
-0.56237 94.18507 -41.28740 12.31999 5.14701 111.87666 -10.97920 25.63148 0.69151 -0.00481 0.00482 -0.00017 -9.89575 37.43287 -1.85808 2.05153 9.49428 -5.13777 -160.53410 -64.44919 -132.55779 -32.49265 66.31755 -80.74339 11.86330 8.61201 -9.06512 18.68024 9.03103 -5.30341 77.41563 5.07527 71.14169 3.62047 25.78946 93.71741 16.86597 12.35078 10.95939 8.14331 2.72089 -18.19984 -17.70125 17.12374 48.56763 -15.98563 -0.05697 -0.04516 16.76395 -18.84422 -41.95888 -25.08721 15.48837 22.77759 22.56117 -17.68181 -59.41234 -9.66485 0.00347 0.00443 -8.05676 -10.22961 20.24540 
-0.87022 94.23252 -42.34460 12.10223 4.71964 111.19176 -10.52537 25.67406 0.07498 -0.00413 0.00475 0.00057 -10.16503 35.76327 -0.46178 1.31221 9.22728 -4.02755 -158.47757 -64.91871 -131.00250 -30.86676 65.69325 -82.68021 12.79121 8.41061 -9.00871 18.30156 9.01814 -4.26456 77.81528 4.51117 71.13533 2.97833 26.02806 94.47201 16.75338 12.25939 10.96331 7.90054 2.97334 -17.90631 -17.54664 15.66305 52.70166 -14.57397 -0.05253 -0.01415 14.98657 -19.37818 -46.25797 -26.54729 14.19413 21.75112 25.05043 -16.41004 -57.49910 -8.69386 0.00285 0.00335 -8.92059 -10.66857 20.27042 
-1.20940 94.26321 -43.38564 11.90850 4.33078 110.48531 -10.15930 25.71644 -0.42070 -0.00355 0.00483 0.00127 -10.41687 34.09168 1.01297 0.70483 8.98447 -2.98862 -156.31192 -65.32092 -129.26692 -29.32526 65.05203 -84.49879 12.73828 8.46794 -8.32419 17.98841 9.03089 -3.27386 78.21193 3.89814 71.16091 2.38572 26.23751 95.24426 16.68398 12.16578 10.83104 7.76488 3.19350 -17.57022 -17.61487 14.57128 56.30511 -13.36453 -0.03984 -0.00499 13.29574 -20.13806 -50.01017 -27.81168 12.85239 20.66630 27.32171 -14.87778 -55.59369 -7.69480 0.00187 0.00349 -9.79165 -11.03694 20.21791 
-1.55096 94.30229 -44.39655 11.74359 3.96626 109.76644 -9.85766 25.76008 -0.79869 -0.00301 0.00502 0.00190 -10.64462 32.43754 2.53026 0.22059 8.76690 -2.01939 -154.16614 -65.63111 -127.49154 -27.95617 64.41904 -86.14374 13.37615 8.38712 -8.19219 17.72815 9.06552 -2.32826 78.60953 3.25854 71.23628 1.81385 26.41568 96.02127 16.66542 12.11841 10.78471 7.70130 3.32833 -17.19495 -17.89083 13.71806 59.41312 -12.26750 -0.03104 -0.00095 11.74196 -20.98086 -53.24975 -28.90456 11.51832 19.55654 31.31258 -11.91983 -52.55687 -19.28551 0.24069 -0.19963 1.52184 -13.44754 18.91894 
-1.86572 94.35849 -45.36426 11.61374 3.62028 109.05299 -9.60199 25.80960 -1.07123 -0.00253 0.00524 0.00245 -10.84340 30.82244 4.05902 -0.15568 8.57885 -1.12033 -152.15790 -65.83036 -125.80746 -26.78656 63.84481 -87.58784 13.42155 8.48059 -7.69350 17.50476 9.12162 -1.43143 79.01925 2.61731 71.37386 1.24095 26.56427 96.79143 16.66676 12.05570 10.66072 7.69690 3.36366 -16.79595 -18.33629 13.04604 62.05346 -11.25699 -0.02417 0.00158 10.35425 -21.83768 -56.00138 -29.81291 10.12552 18.44034 34.36313 -9.21299 -50.07060 -30.77362 0.20571 -0.12618 12.62212 -14.76874 17.79495 
-2.14085 94.44455 -46.27624 11.52529 3.28113 108.36675 -9.36735 25.86739 -1.25497 -0.00210 0.00536 0.00292 -11.00962 29.26960 5.57144 -0.44042 8.42512 -0.27784 -150.35666 -65.91068 -124.30123 -25.81741 63.34408 -88.84567 13.89528 8.51131 -7.53797 17.30451 9.19947 -0.59442 79.45215 2.00023 71.57870 0.65449 26.68932 97.55365 16.69577 12.00077 10.58430 7.76315 3.31012 -16.39321 -18.90785 12.52695 64.25069 -10.33544 -0.01820 0.00320 9.14552 -22.66473 -58.29647 -30.61119 8.71119 17.34733 38.56279 -5.10901 -48.00845 -25.84842 0.00414 0.15577 7.05026 -17.75386 16.06545 
-2.37307 94.56858 -47.11830 11.48232 2.93915 107.73342 -9.13170 25.93568 -1.37007 -0.00184 0.00549 0.00333 -11.13975 27.80065 7.04228 -0.65691 8.30720 0.51402 -148.78091 -65.86814 -123.01146 -25.00282 62.93409 -89.95187 14.02227 8.64818 -7.15779 17.12300 9.29632 0.16545 79.91100 1.43102 71.84895 0.05265 26.79841 98.31036 16.72305 11.91678 10.45296 7.91798 3.19243 -16.00915 -19.56103 12.13954 66.02647 -9.51271 -0.01294 0.00405 8.12071 -23.42295 -60.16101 -31.35871 7.24607 16.29507 42.83565 -0.35029 -45.58880 -32.02452 0.23551 -0.08753 12.38055 -21.13595 13.98627 
-2.56363 94.72565 -47.87958 11.48413 2.59050 107.17820 -8.88180 26.01408 -1.43572 -0.00175 0.00560 0.00369 -11.23055 26.43462 8.44817 -0.82585 8.22299 1.26423 -147.39946 -65.70416 -121.92464 -24.29693 62.60494 -90.94823 14.41030 8.73043 -6.97807 16.96614 9.40760 0.83530 80.38728 0.92082 72.17594 -0.56114 26.89886 99.06684 16.75615 11.83113 10.33924 8.17238 3.03868 -15.66286 -20.25217 11.86375 67.39962 -8.79603 -0.00850 0.00425 7.27792 -24.07766 -61.61816 -32.06157 5.71083 15.28966 47.06825 4.85641 -43.72269 -29.76854 0.01711 0.10432 8.90282 -24.43421 11.28131 
-2.71607 94.89948 -48.55338 11.52523 2.23712 106.72189 -8.61357 26.09861 -1.46761 -0.00179 0.00572 0.00398 -11.28054 25.18665 9.76807 -0.96248 8.16859 1.96991 -146.16739 -65.42292 -121.00512 -23.64670 62.34696 -91.87022 14.58306 8.85580 -6.64615 16.84098 9.52891 1.41185 80.86903 0.46705 72.54955 -1.18361 26.99396 99.82523 16.76975 11.73736 10.19126 8.52411 2.87238 -15.36565 -20.94115 11.68077 68.38809 -8.18531 -0.00500 0.00402 6.60715 -24.60859 -62.69438 -32.70730 4.11216 14.33650 50.92142 10.10820 -41.91530 -34.65416 0.22671 -0.03840 12.43591 -27.60501 8.50847 
-2.84745 95.07899 -49.14281 11.59365 1.88474 106.37508 -8.32925 26.17981 -1.47472 -0.00183 0.00583 0.00412 -11.29244 24.06657 10.98391 -1.06913 8.13946 2.62253 -145.05696 -65.03301 -120.21962 -23.01860 62.13988 -92.74449 14.89407 8.92976 -6.42688 16.74839 9.65617 1.90311 81.34790 0.05510 72.96189 -1.81433 27.08162 100.58732 16.76912 11.66056 10.05427 8.95314 2.70281 -15.11671 -21.59266 11.57204 69.01480 -7.66804 -0.00245 0.00353 6.09255 -25.01362 -63.42741 -33.24059 2.55655 13.44561 52.91320 13.88509 -40.65197 -30.24937 -0.08729 0.00791 7.32713 -28.46621 6.85502 
-2.98108 95.26180 -49.65588 11.67568 1.53941 106.14020 -8.02979 26.24836 -1.46275 -0.00178 0.00598 0.00414 -11.27367 23.07748 12.08121 -1.14194 8.13048 3.20726 -144.06789 -64.54361 -119.54992 -22.38808 61.97578 -93.58646 15.05793 9.01778 -6.10423 16.67957 9.78419 2.32419 81.82360 -0.33535 73.41036 -2.45319 27.15547 101.35065 16.74544 11.59290 9.89148 9.42734 2.52614 -14.90902 -22.17759 11.51577 69.31097 -7.21896 -0.00067 0.00294 5.71807 -25.29692 -63.86291 -33.63249 1.14233 12.63457 53.69019 16.76145 -39.58053 -30.02159 -0.00108 -0.00477 7.12899 -28.73575 6.20231 
-3.13442 95.44962 -50.09937 11.75900 1.20733 106.01505 -7.71396 26.29852 -1.43648 -0.00162 0.00621 0.00409 -11.23458 22.21677 13.04943 -1.18008 8.13634 3.71356 -143.20323 -63.96281 -118.97970 -21.74541 61.84932 -94.40378 15.29789 9.06000 -5.84225 16.62024 9.90657 2.68790 82.30028 -0.72141 73.89640 -3.09847 27.20933 102.10744 16.71850 11.54118 9.72546 9.91134 2.33326 -14.73540 -22.67386 11.48638 69.31324 -6.80773 0.00061 0.00233 5.47203 -25.45783 -64.04350 -33.86365 -0.06728 11.92153 53.86306 18.90549 -38.64138 -29.29833 0.00576 -0.00305 6.66341 -28.42978 6.12463 
-3.31304 95.64471 -50.47577 11.83442 0.89395 105.99541 -7.37911 26.32847 -1.40047 -0.00142 0.00651 0.00402 -11.18586 21.47845 13.88236 -1.18916 8.15126 4.13551 -142.45145 -63.29665 -118.48271 -21.08219 61.76171 -95.19820 15.45646 9.09772 -5.50946 16.55998 10.01613 2.99929 82.77811 -1.11134 74.42124 -3.74682 27.23957 102.84395 16.68305 11.49108 9.54402 10.37620 2.11821 -14.59128 -23.06576 11.45829 69.05788 -6.40955 0.00164 0.00174 5.34401 -25.49440 -64.00504 -33.93309 -1.03604 11.32219 53.64747 20.57005 -37.78141 -28.83874 0.01325 0.00031 6.62087 -27.87752 6.34440 
-3.51182 95.84579 -50.78452 11.89651 0.60419 106.07690 -7.02340 26.33888 -1.35935 -0.00125 0.00683 0.00393 -11.13681 20.85588 14.57794 -1.17936 8.16790 4.47222 -141.79137 -62.55597 -118.02855 -20.39955 61.71325 -95.96613 15.67277 9.09707 -5.21234 16.49318 10.10471 3.25827 83.25316 -1.50485 74.97976 -4.39562 27.24630 103.54593 16.65045 11.44206 9.36925 10.80344 1.88262 -14.47514 -23.34292 11.41177 68.57801 -6.01209 0.00252 0.00117 5.31870 -25.40762 -63.78314 -33.84935 -1.75306 10.84767 53.18425 21.88124 -36.97171 -28.24729 0.01516 0.00194 6.52804 -27.17809 6.76448 
-3.71926 96.04681 -51.02372 11.94351 0.34112 106.25449 -6.64643 26.33104 -1.31707 -0.00116 0.00711 0.00375 -11.09464 20.34317 15.13801 -1.16263 8.17805 4.72183 -141.20859 -61.76015 -117.59648 -19.70306 61.70723 -96.70043 15.84959 9.08920 -4.87366 16.41313 10.16423 3.46661 83.72263 -1.89807 75.55887 -5.04347 27.23192 104.20150 16.62154 11.38412 9.19785 11.18336 1.63416 -14.38667 -23.49822 11.33642 67.90408 -5.61489 0.00326 0.00063 5.37513 -25.19406 -63.41593 -33.62937 -2.22402 10.50402 52.56618 22.90889 -36.19504 -27.73746 0.01674 0.00390 6.54116 -26.40788 7.23977 
